<svg xmlns="http://www.w3.org/2000/svg" width="60" height="60" viewBox="0 0 60 60">
  <g id="avalanche-avax-logo" transform="translate(-0.5 -1)">
    <rect id="Rectangle_29" data-name="Rectangle 29" width="31.643" height="41.695" transform="translate(14.654 8.149)" fill="#fff"/>
    <path id="Path_85" data-name="Path 85" d="M60.5,31a30,30,0,1,1-30-30A30,30,0,0,1,60.5,31ZM22,42.938H16.177a4.675,4.675,0,0,1-2.2-.236,1.48,1.48,0,0,1-.671-1.157c-.022-.435.28-.965.884-2.027L28.57,14.18c.612-1.076.921-1.614,1.312-1.813a1.483,1.483,0,0,1,1.341,0c.391.2.7.737,1.312,1.813l2.955,5.159.015.026a9.676,9.676,0,0,1,1.142,2.354,4.377,4.377,0,0,1,0,2.049,9.713,9.713,0,0,1-1.15,2.38L27.946,39.5l-.02.034a9.576,9.576,0,0,1-1.469,2.2,4.4,4.4,0,0,1-1.791,1.039A10.534,10.534,0,0,1,22,42.938Zm14.7,0h8.342a4.641,4.641,0,0,0,2.219-.243,1.475,1.475,0,0,0,.671-1.164c.021-.421-.274-.931-.854-1.93l-.06-.1-4.179-7.149-.048-.08c-.587-.993-.884-1.494-1.264-1.688a1.467,1.467,0,0,0-1.334,0c-.383.2-.693.722-1.3,1.776L34.727,39.5l-.014.025c-.61,1.052-.914,1.578-.892,2.009a1.493,1.493,0,0,0,.671,1.164A4.714,4.714,0,0,0,36.7,42.938Z" fill="#e84142" fill-rule="evenodd"/>
  </g>
</svg>
