<svg xmlns="http://www.w3.org/2000/svg" width="22" height="22" viewBox="0 0 22 22">
  <g id="Group_110" data-name="Group 110" transform="translate(-1520 -64)">
    <rect id="Rectangle_71" data-name="Rectangle 71" width="22" height="22" transform="translate(1520 64)" fill="none"/>
    <g id="noun-performance-4744670" transform="translate(1350.416 -35.303)">
      <path id="Path_123" data-name="Path 123" d="M184.929,101.162a26.391,26.391,0,0,0-8.676,0,6.444,6.444,0,0,0-5.309,5.309,26.392,26.392,0,0,0,0,8.676,6.443,6.443,0,0,0,5.309,5.309,27.32,27.32,0,0,0,8.676-.025,6.443,6.443,0,0,0,5.309-5.309,26.77,26.77,0,0,0-.012-8.663,6.444,6.444,0,0,0-5.3-5.3ZM173.1,110.8a23.949,23.949,0,0,1,.312-3.929,3.945,3.945,0,0,1,3.254-3.254,23.892,23.892,0,0,1,7.855,0,3.945,3.945,0,0,1,3.123,2.73l-4.978,4.987a.4.4,0,0,1-.547.022l-1.974-1.693a3.023,3.023,0,0,0-4.085.156L173.17,112.7c-.047-.637-.075-1.28-.075-1.9Zm14.678,3.929a3.945,3.945,0,0,1-3.254,3.254,24.879,24.879,0,0,1-7.858,0,3.945,3.945,0,0,1-2.942-2.289l4.1-4.107a.512.512,0,0,1,.69-.028l1.974,1.693a2.914,2.914,0,0,0,3.938-.15l3.62-3.617c.025.437.04.877.04,1.315a23.973,23.973,0,0,1-.312,3.929Z" fill="#cfedff"/>
    </g>
  </g>
</svg>
