<svg id="bunny-color" xmlns="http://www.w3.org/2000/svg" width="57.042" height="59.236" viewBox="0 0 57.042 59.236">
  <path id="Path_75" data-name="Path 75" d="M31.5,59.236c-8.8-.007-15.881-2.1-20.832-5.849A18.725,18.725,0,0,1,3,38.1,17.527,17.527,0,0,1,8.652,25.125a24.913,24.913,0,0,1,6.753-4.509c-.409-1.241-.918-2.866-1.374-4.545a29.274,29.274,0,0,1-1.209-6.812,10.422,10.422,0,0,1,1.861-6.365A7.483,7.483,0,0,1,20.874,0a7.219,7.219,0,0,1,5.1,2.031,11.389,11.389,0,0,1,2.741,4.563,36.585,36.585,0,0,1,1.561,10.495h2.488A36.588,36.588,0,0,1,34.326,6.594a11.389,11.389,0,0,1,2.741-4.563A7.218,7.218,0,0,1,42.169,0a7.483,7.483,0,0,1,6.19,2.894A10.422,10.422,0,0,1,50.22,9.259a29.262,29.262,0,0,1-1.209,6.812c-.456,1.678-.966,3.3-1.374,4.545a24.913,24.913,0,0,1,6.753,4.509A17.527,17.527,0,0,1,60.042,38.1a18.725,18.725,0,0,1-7.668,15.286c-4.951,3.753-12.036,5.842-20.832,5.849Z" transform="translate(-3 0)" fill="#633001" fill-rule="evenodd"/>
  <path id="Path_76" data-name="Path 76" d="M26.529,7.288c-3.751,0-5.477,2.8-5.477,6.672,0,3.078,2.006,9.241,2.829,11.64a1.079,1.079,0,0,1-.636,1.34c-3.006,1.186-11.877,5.528-11.877,15.473,0,10.475,9.015,18.374,25.639,18.386h.04c16.624-.013,25.639-7.911,25.639-18.386,0-9.945-8.871-14.287-11.877-15.473a1.079,1.079,0,0,1-.636-1.34C51,23.2,53,17.037,53,13.96c0-3.872-1.726-6.672-5.477-6.672-5.4,0-6.744,7.652-6.841,15.864a1,1,0,0,1-1,.993H34.367a1,1,0,0,1-1-.993C33.273,14.94,31.928,7.288,26.529,7.288Z" transform="translate(-8.505 -4.795)" fill="#d1884f"/>
  <path id="Path_77" data-name="Path 77" d="M37.05,144.19c-12.216,0-25.661-7.606-25.682-17.453,0,.015,0,.03,0,.046,0,12.189,9.03,21.377,25.682,21.377s25.682-9.188,25.682-21.377v-.046C62.71,136.583,49.265,144.19,37.05,144.19Z" transform="translate(-8.505 -92.087)" fill="#fedc90"/>
  <path id="Path_78" data-name="Path 78" d="M62.116,108.173c0,3.324-1.571,5.056-3.509,5.056S55.1,111.5,55.1,108.173s1.571-5.056,3.509-5.056S62.116,104.848,62.116,108.173Z" transform="translate(-39.834 -73.152)" fill="#633001"/>
  <path id="Path_79" data-name="Path 79" d="M128.791,108.173c0,3.324-1.571,5.056-3.509,5.056s-3.509-1.731-3.509-5.056,1.571-5.056,3.509-5.056S128.791,104.848,128.791,108.173Z" transform="translate(-86.973 -73.152)" fill="#633001"/>
</svg>
