<svg xmlns="http://www.w3.org/2000/svg" width="67.203" height="62.097" viewBox="0 0 67.203 62.097">
  <g id="Layer_2" data-name="Layer 2" transform="translate(-0.01 -0.002)">
    <g id="Layer_1" data-name="Layer 1" transform="translate(0.01 0.002)">
      <path id="Path_89" data-name="Path 89" d="M74.452,111.662a4.534,4.534,0,0,0,4.262,4.786h.247a4.524,4.524,0,1,0-4.522-4.784Z" transform="translate(-56.038 -80.847)" fill="#0033ad"/>
      <path id="Path_90" data-name="Path 90" d="M1.552,119.993a1.459,1.459,0,1,0,1.009.485,1.461,1.461,0,0,0-1.009-.485Z" transform="translate(-0.01 -90.325)" fill="#0033ad"/>
      <path id="Path_91" data-name="Path 91" d="M66.837,10.008a1.466,1.466,0,1,0-1.124.088A1.464,1.464,0,0,0,66.837,10.008Z" transform="translate(-48.71 -5.452)" fill="#0033ad"/>
      <path id="Path_92" data-name="Path 92" d="M81.919,37.785a2.26,2.26,0,1,0-3.036-1A2.26,2.26,0,0,0,81.919,37.785Z" transform="translate(-59.201 -25.224)" fill="#0033ad"/>
      <path id="Path_93" data-name="Path 93" d="M26.855,62.675a1.862,1.862,0,1,0-.534-2.576A1.862,1.862,0,0,0,26.855,62.675Z" transform="translate(-19.587 -44.608)" fill="#0033ad"/>
      <path id="Path_94" data-name="Path 94" d="M33.272,116.659a2.26,2.26,0,1,0,2.129,2.386A2.26,2.26,0,0,0,33.272,116.659Z" transform="translate(-23.251 -87.815)" fill="#0033ad"/>
      <path id="Path_95" data-name="Path 95" d="M27.3,177.509a1.862,1.862,0,1,0,2.5.823,1.862,1.862,0,0,0-2.5-.823Z" transform="translate(-19.781 -133.473)" fill="#0033ad"/>
      <path id="Path_96" data-name="Path 96" d="M62.277,82.9a2.658,2.658,0,1,0-1.147-1.683A2.66,2.66,0,0,0,62.277,82.9Z" transform="translate(-45.977 -58.731)" fill="#0033ad"/>
      <path id="Path_97" data-name="Path 97" d="M175.532,37.432a2.26,2.26,0,1,0-.979-1.43A2.262,2.262,0,0,0,175.532,37.432Z" transform="translate(-131.364 -25.049)" fill="#0033ad"/>
      <path id="Path_98" data-name="Path 98" d="M195.406,9.626a1.464,1.464,0,1,0-.423-2.025A1.464,1.464,0,0,0,195.406,9.626Z" transform="translate(-146.6 -5.223)" fill="#0033ad"/>
      <path id="Path_99" data-name="Path 99" d="M165.53,107.2a4.526,4.526,0,0,0-.519,9.036h.262a4.524,4.524,0,0,0,3.372-7.538A4.47,4.47,0,0,0,165.53,107.2Z" transform="translate(-121.005 -80.689)" fill="#0033ad"/>
      <path id="Path_100" data-name="Path 100" d="M96.451,76.554a4.527,4.527,0,1,0,.194-4.4A4.507,4.507,0,0,0,96.451,76.554Z" transform="translate(-72.246 -52.694)" fill="#0033ad"/>
      <path id="Path_101" data-name="Path 101" d="M233.187,62.33a1.862,1.862,0,1,0-2.5-.826A1.862,1.862,0,0,0,233.187,62.33Z" transform="translate(-173.504 -44.268)" fill="#0033ad"/>
      <path id="Path_102" data-name="Path 102" d="M190.542,78.022a2.658,2.658,0,1,0,2.031-.151A2.66,2.66,0,0,0,190.542,78.022Z" transform="translate(-142.334 -58.518)" fill="#0033ad"/>
      <path id="Path_103" data-name="Path 103" d="M129.874,3.722a1.862,1.862,0,1,0-1.753-1.963A1.862,1.862,0,0,0,129.874,3.722Z" transform="translate(-96.445 -0.002)" fill="#0033ad"/>
      <path id="Path_104" data-name="Path 104" d="M127.494,46.253a2.66,2.66,0,1,0-2.507-2.809,2.66,2.66,0,0,0,2.507,2.809Z" transform="translate(-94.085 -30.816)" fill="#0033ad"/>
      <path id="Path_105" data-name="Path 105" d="M65.092,156.946a2.66,2.66,0,1,0-3.573-1.177A2.66,2.66,0,0,0,65.092,156.946Z" transform="translate(-46.097 -114.353)" fill="#0033ad"/>
      <path id="Path_106" data-name="Path 106" d="M139.836,71.915a4.524,4.524,0,1,0,3.79-2.045A4.524,4.524,0,0,0,139.836,71.915Z" transform="translate(-104.709 -52.596)" fill="#0033ad"/>
      <path id="Path_107" data-name="Path 107" d="M147.833,147.1a4.524,4.524,0,1,0-4.04,6.562,4.574,4.574,0,0,0,2.037-.494A4.527,4.527,0,0,0,147.833,147.1Z" transform="translate(-104.839 -108.856)" fill="#0033ad"/>
      <path id="Path_108" data-name="Path 108" d="M193.344,152.06a2.66,2.66,0,1,0,.764,3.684A2.66,2.66,0,0,0,193.344,152.06Z" transform="translate(-142.444 -114.138)" fill="#0033ad"/>
      <path id="Path_109" data-name="Path 109" d="M227.18,118.632a2.26,2.26,0,1,0-2.386,2.129A2.26,2.26,0,0,0,227.18,118.632Z" transform="translate(-167.616 -87.506)" fill="#0033ad"/>
      <path id="Path_110" data-name="Path 110" d="M261.537,119.382a1.464,1.464,0,1,0,1.377,1.545,1.464,1.464,0,0,0-1.377-1.545Z" transform="translate(-195.714 -89.866)" fill="#0033ad"/>
      <path id="Path_111" data-name="Path 111" d="M233.635,177.163a1.862,1.862,0,1,0,.536,2.579A1.862,1.862,0,0,0,233.635,177.163Z" transform="translate(-173.706 -133.133)" fill="#0033ad"/>
      <path id="Path_112" data-name="Path 112" d="M67.508,232.629a1.464,1.464,0,1,0,.42,2.027A1.464,1.464,0,0,0,67.508,232.629Z" transform="translate(-49.114 -174.935)" fill="#0033ad"/>
      <path id="Path_113" data-name="Path 113" d="M196.038,232.261a1.461,1.461,0,1,0,1.117-.084A1.464,1.464,0,0,0,196.038,232.261Z" transform="translate(-146.967 -174.72)" fill="#0033ad"/>
      <path id="Path_114" data-name="Path 114" d="M104.431,151.674a4.524,4.524,0,1,0-3.788,2.045A4.524,4.524,0,0,0,104.431,151.674Z" transform="translate(-72.36 -108.903)" fill="#0033ad"/>
      <path id="Path_115" data-name="Path 115" d="M82.512,199.967a2.26,2.26,0,1,0,.653,3.13,2.26,2.26,0,0,0-.653-3.13Z" transform="translate(-59.482 -150.251)" fill="#0033ad"/>
      <path id="Path_116" data-name="Path 116" d="M129.84,236.111a1.862,1.862,0,1,0,1.753,1.965A1.862,1.862,0,0,0,129.84,236.111Z" transform="translate(-96.26 -177.734)" fill="#0033ad"/>
      <path id="Path_117" data-name="Path 117" d="M127.319,188.725a2.66,2.66,0,1,0,2.495,2.806A2.66,2.66,0,0,0,127.319,188.725Z" transform="translate(-93.72 -142.063)" fill="#0033ad"/>
      <path id="Path_118" data-name="Path 118" d="M176.147,199.609a2.257,2.257,0,1,0,1.724-.136A2.262,2.262,0,0,0,176.147,199.609Z" transform="translate(-131.667 -150.074)" fill="#0033ad"/>
    </g>
  </g>
</svg>
