<svg xmlns="http://www.w3.org/2000/svg" width="20.998" height="20.998" viewBox="0 0 20.998 20.998">
  <g id="noun-check-4728432" transform="translate(-144.002 -56.002)">
    <path id="Subtraction_1" data-name="Subtraction 1" d="M3282.5,21415a10.5,10.5,0,1,1,10.5-10.5A10.511,10.511,0,0,1,3282.5,21415Zm-4.713-11.678a.844.844,0,0,0-.6,1.439l3.144,3.139a.837.837,0,0,0,.6.248.814.814,0,0,0,.591-.248l6.288-6.283a.845.845,0,0,0,0-1.191.83.83,0,0,0-1.188,0l-5.692,5.686-2.548-2.543A.838.838,0,0,0,3277.785,21403.322Z" transform="translate(-3128 -21338)" fill="#23ba95"/>
  </g>
</svg>
