<svg xmlns="http://www.w3.org/2000/svg" xmlns:xlink="http://www.w3.org/1999/xlink" width="733" height="392" viewBox="0 0 733 392">
  <defs>
    <linearGradient id="linear-gradient" x1="0.348" y1="-0.003" x2="0.536" y2="0.622" gradientUnits="objectBoundingBox">
      <stop offset="0" stop-color="#74e0ea"/>
      <stop offset="1" stop-color="#1ba7fd"/>
    </linearGradient>
  </defs>
  <g id="Group_66" data-name="Group 66" transform="translate(-360 -636)">
    <g id="Rectangle_41" data-name="Rectangle 41" transform="translate(360 636)" fill="#cfedff" stroke="#fff" stroke-width="2">
      <rect width="733" height="392" stroke="none"/>
      <rect x="1" y="1" width="731" height="390" fill="none"/>
    </g>
    <g id="Hand-Phone-Illustration" transform="translate(257.6 469.6)">
      <g id="Layer_3" transform="translate(252.4 304.274)">
        <path id="Path_1" data-name="Path 1" d="M252.4,527.368S264.038,359.829,300.743,333.1c0,0-1.151,82.618,3.709,85.432,0,0,2.558.639,6.778-12.661,0,0,11.766-30.566,24.044-33.508,0,0,8.825-1.023,6.522,6.778s-7.162,11.127-8.185,15.347c0,0-2.941,35.81-4.6,41.053s-.639,9.08-25.45,44.89c0,0-3.2,2.3-2.558,26.09l1.918,20.846Z" transform="translate(-252.4 -273.315)" fill="#ffa677"/>
        <path id="Path_2" data-name="Path 2" d="M374.9,291.4s10.615-8.185,13.3-3.709c0,0,2.814,3.837-6.65,20.335,0,0-4.22,7.546-6.65,10.231V291.4Z" transform="translate(-218.233 -286.353)" fill="#ffa575"/>
        <path id="Path_3" data-name="Path 3" d="M374.9,320.579s21.23-8.441,22.893-.9c0,0,3.2,5.244-9.208,14.452,0,0-11,6.778-13.684,7.29V320.579Z" transform="translate(-218.233 -277.932)" fill="#ffa575"/>
        <path id="Path_4" data-name="Path 4" d="M374.9,345.22s4.476-1.023,7.546,3.709c0,0,14.324,17.265,10.871,22.765,0,0-2.941,4.092-10.231,1.663,0,0,11.382,18.416,4.093,22.381,0,0-5.5,3.325-12.278-4.348Z" transform="translate(-218.233 -269.96)" fill="#ffa575"/>
      </g>
      <g id="Layer_5" transform="translate(297.29 272.179)">
        <g id="Group_2" data-name="Group 2">
          <path id="Path_5" data-name="Path 5" d="M382.145,489.654h-76.1A17.684,17.684,0,0,1,288.4,472.005V278.249A17.684,17.684,0,0,1,306.049,260.6h76.1a17.684,17.684,0,0,1,17.649,17.649V472.133A17.742,17.742,0,0,1,382.145,489.654Z" transform="translate(-287.249 -260.6)" fill="#f9fafb"/>
          <g id="Group_1" data-name="Group 1" transform="translate(5.755 5.116)">
            <path id="Path_6" data-name="Path 6" d="M376.281,483.934H308.626A16.593,16.593,0,0,1,292,467.308V281.226A16.593,16.593,0,0,1,308.626,264.6h67.655a16.593,16.593,0,0,1,16.626,16.626V467.181A16.7,16.7,0,0,1,376.281,483.934Z" transform="translate(-292 -264.6)" fill="#e1eef9"/>
          </g>
          <rect id="Rectangle_2" data-name="Rectangle 2" width="1.151" height="16.37" transform="translate(0.256 66.632)" fill="#f9fafb"/>
          <rect id="Rectangle_3" data-name="Rectangle 3" width="2.174" height="16.754" transform="translate(0.256 45.657)" fill="#f9fafb"/>
          <rect id="Rectangle_4" data-name="Rectangle 4" width="1.918" height="9.336" transform="translate(0 29.031)" fill="#f9fafb"/>
          <rect id="Rectangle_5" data-name="Rectangle 5" width="2.558" height="27.241" transform="translate(111.01 51.285)" fill="#f9fafb"/>
          <path id="Path_7" data-name="Path 7" d="M353.395,273.078H321.678A12.281,12.281,0,0,1,309.4,260.8h56.4A12.309,12.309,0,0,1,353.395,273.078Z" transform="translate(-281.392 -260.544)" fill="#f9fafb"/>
          <path id="Path_8" data-name="Path 8" d="M338.094,267.59h-11a.874.874,0,0,1-.9-.9h0a.874.874,0,0,1,.9-.9h11a.874.874,0,0,1,.9.9h0C339.117,267.207,338.605,267.59,338.094,267.59Z" transform="translate(-276.706 -259.15)" fill="#322c4a" opacity="0.14"/>
          <path id="Path_9" data-name="Path 9" d="M342.4,266.755a1.151,1.151,0,1,1-1.151-1.151C341.763,265.476,342.4,266.115,342.4,266.755Z" transform="translate(-272.829 -259.209)" fill="#322c4a" opacity="0.14"/>
          <path id="Path_10" data-name="Path 10" d="M350.46,267.032a2.43,2.43,0,1,1-2.43-2.43A2.282,2.282,0,0,1,350.46,267.032Z" transform="translate(-271.295 -259.486)" fill="#322c4a" opacity="0.14"/>
          <path id="Path_11" data-name="Path 11" d="M324.358,266.779a1.279,1.279,0,1,1-1.279-1.279A1.208,1.208,0,0,1,324.358,266.779Z" transform="translate(-277.933 -259.233)" fill="#322c4a" opacity="0.14"/>
          <path id="Path_12" data-name="Path 12" d="M319.8,267a2.3,2.3,0,1,1-2.3-2.3A2.216,2.216,0,0,1,319.8,267Z" transform="translate(-279.774 -259.459)" fill="#322c4a" opacity="0.14"/>
          <path id="Path_13" data-name="Path 13" d="M353.414,431.723h-34.4a.55.55,0,0,1-.512-.512h0a.55.55,0,0,1,.512-.512h34.4a.55.55,0,0,1,.512.512h0A.468.468,0,0,1,353.414,431.723Z" transform="translate(-278.854 -213.156)" fill="#feffff"/>
        </g>
      </g>
      <g id="Layer_4" transform="translate(336.96 386.937)">
        <path id="Path_14" data-name="Path 14" d="M381.673,521.666s-43.611-42.972-53.331-61.9c0,0-6.139-10.359-9.464-13.684-3.2-3.2,15.731-1.023,23.788,8.057,0,0,18.544,16.114,22.509,18.8,0,0,9.976,10.359,11.766-5.627l-8.824-101.674s-1.407-24.172,7.29-11.766c0,0,3.709,9.72,10.487,43.995,0,0,7.546,29.8,8.057,32.868,0,0,10.1-4.988,13.3-2.43,0,0,5.116,5.883,10.743,2.3s10.743,3.965,10.743,3.965a7.109,7.109,0,0,0,8.185.9c4.86-2.43,12.15,2.814,14.068,10.1,1.79,7.29,7.29,73.538,7.034,76.223H381.673Z" transform="translate(-318.518 -350.331)" fill="#ffa575"/>
      </g>
      <g id="Layer_8" transform="translate(455.619 311.467)">
        <path id="Path_15" data-name="Path 15" d="M449.412,320.151l-27.625-1.535s-10.359-2.43-10.487,3.069,9.208,10.359,9.208,10.359a45.3,45.3,0,0,0,14.963,3.453s12.406,2.174,13.684,3.2Z" transform="translate(-411.299 -284.697)" fill="#ffa575"/>
        <path id="Path_16" data-name="Path 16" d="M535.961,538.837s-20.079-69.829-31.589-81.339c0,0-7.8-5.883-4.6-11.51s0-100.139,0-100.139,8.569-1.023,26.09,9.464l.512-14.835s-12.15-21.486-12.661-30.822c0,0-1.663-8.313,6.394-16.37,0,0,1.663-2.942,3.709,0,0,0,12.661,19.567,20.463,36.321a23.987,23.987,0,0,0,5.371,5.883s3.709-.512,7.546,48.087c0,0,2.686,18.8,0,44.251l58.83,110.882h-80.06Z" transform="translate(-386.838 -291.978)" fill="#ffa575"/>
      </g>
      <g id="Layer_6" transform="translate(491.813 287.781)">
        <g id="Group_4" data-name="Group 4">
          <path id="Path_17" data-name="Path 17" d="M515.628,456.836H454.5a14.246,14.246,0,0,1-14.2-14.2V287a14.246,14.246,0,0,1,14.2-14.2h61.132a14.246,14.246,0,0,1,14.2,14.2V442.768A14.219,14.219,0,0,1,515.628,456.836Z" transform="translate(-439.405 -272.8)" fill="#f9fafb"/>
          <g id="Group_3" data-name="Group 3" transform="translate(4.604 4.093)">
            <path id="Path_18" data-name="Path 18" d="M510.983,452.235H456.629A13.427,13.427,0,0,1,443.2,438.806V289.429A13.427,13.427,0,0,1,456.629,276h54.354a13.427,13.427,0,0,1,13.429,13.429V438.934A13.568,13.568,0,0,1,510.983,452.235Z" transform="translate(-443.2 -276)" fill="url(#linear-gradient)"/>
          </g>
          <rect id="Rectangle_6" data-name="Rectangle 6" width="0.895" height="13.173" transform="translate(0.128 53.587)" fill="#f9fafb"/>
          <rect id="Rectangle_7" data-name="Rectangle 7" width="1.79" height="13.429" transform="translate(0.128 36.705)" fill="#f9fafb"/>
          <rect id="Rectangle_8" data-name="Rectangle 8" width="1.535" height="7.418" transform="translate(0 23.404)" fill="#f9fafb"/>
          <rect id="Rectangle_9" data-name="Rectangle 9" width="2.046" height="21.869" transform="translate(89.141 41.181)" fill="#f9fafb"/>
          <path id="Path_19" data-name="Path 19" d="M492.654,282.876H467.075A9.988,9.988,0,0,1,457.1,272.9h45.4A9.962,9.962,0,0,1,492.654,282.876Z" transform="translate(-434.719 -272.772)" fill="#f9fafb"/>
          <path id="Path_20" data-name="Path 20" d="M480.292,278.435h-8.825a.825.825,0,0,1-.767-.767h0a.825.825,0,0,1,.767-.767h8.825a.825.825,0,0,1,.767.767h0A.737.737,0,0,1,480.292,278.435Z" transform="translate(-430.926 -271.656)" fill="#322c4a" opacity="0.14"/>
          <path id="Path_21" data-name="Path 21" d="M483.69,277.7a.9.9,0,1,1-.9-.9A.961.961,0,0,1,483.69,277.7Z" transform="translate(-427.802 -271.684)" fill="#322c4a" opacity="0.14"/>
          <path id="Path_22" data-name="Path 22" d="M490.193,277.946a2.046,2.046,0,1,1-2.046-2.046A2.1,2.1,0,0,1,490.193,277.946Z" transform="translate(-426.63 -271.935)" fill="#322c4a" opacity="0.14"/>
          <path id="Path_23" data-name="Path 23" d="M469.246,277.723a1.023,1.023,0,1,1-1.023-1.023A1.1,1.1,0,0,1,469.246,277.723Z" transform="translate(-431.902 -271.712)" fill="#322c4a" opacity="0.14"/>
          <path id="Path_24" data-name="Path 24" d="M465.537,277.918A1.918,1.918,0,1,1,463.618,276,1.967,1.967,0,0,1,465.537,277.918Z" transform="translate(-433.436 -271.907)" fill="#322c4a" opacity="0.14"/>
          <path id="Path_25" data-name="Path 25" d="M492.508,410.367H464.884a.339.339,0,0,1-.384-.384h0a.339.339,0,0,1,.384-.384h27.625a.339.339,0,0,1,.384.384h0C493.02,410.112,492.764,410.367,492.508,410.367Z" transform="translate(-432.655 -234.644)" fill="#feffff"/>
        </g>
      </g>
      <g id="Layer_7" transform="translate(473.814 367.655)">
        <path id="Path_26" data-name="Path 26" d="M454.524,366.135s4.093-2.814-1.151-11.766L442.63,336.847s-11.382-4.988-14.708,2.686a10.84,10.84,0,0,0-.767,10.615l6.267,5.883s-10.487,4.22-7.29,14.452c0,0,9.08,9.08,10.359,9.848s-8.057,4.6-4.093,13.812c0,0,12.789,12.15,16.114,14.58,0,0,10.231,7.162,13.045,0a24.134,24.134,0,0,0-5.116-14.068l-4.093-5.883s6.267-2.686,2.686-9.464l-7.418-12.15C447.618,367.03,453.245,368.053,454.524,366.135Z" transform="translate(-425.526 -335.254)" fill="#ffa575"/>
      </g>
      <g id="Layer_9" transform="translate(327.472 219.087)">
        <path id="Path_27" data-name="Path 27" d="M369.291,340.408v-9.336h-2.558a6.867,6.867,0,0,1-5.755-6.778,6.482,6.482,0,0,1,1.151-3.837l1.79-1.79h0l-6.522-6.522h0a.125.125,0,0,1-.128.128l-1.663,1.663a6.986,6.986,0,0,1-10.871-4.348V306.9H335.4v2.558a6.867,6.867,0,0,1-6.778,5.755,6.482,6.482,0,0,1-3.837-1.151l-1.918-1.791h0l-6.523,6.522h0a.125.125,0,0,1,.128.128l1.663,1.663a6.986,6.986,0,0,1-4.348,10.871H311.1v9.208h2.558a6.867,6.867,0,0,1,5.755,6.778,6.482,6.482,0,0,1-1.151,3.837l-1.79,1.79h0l6.522,6.522h0a.125.125,0,0,1,.128-.128l1.663-1.663a6.986,6.986,0,0,1,10.871,4.348v2.686h9.336v-2.558a6.867,6.867,0,0,1,6.778-5.755,6.482,6.482,0,0,1,3.837,1.151l1.79,1.79h0l6.522-6.523h0a.125.125,0,0,1-.128-.128l-1.663-1.663a6.986,6.986,0,0,1,4.348-10.871l2.814.128Zm-28.9,6.522a11.254,11.254,0,1,1,11.254-11.254,11.271,11.271,0,0,1-11.254,11.254Z" transform="translate(-311.1 -194.595)" fill="#2b9efc"/>
        <g id="Group_9" data-name="Group 9" transform="translate(123.392 5.077)">
          <path id="Path_28" data-name="Path 28" d="M441.621,223.112c-8.057.639-20.846,9.208-28.52,19.056h0c-7.673,9.848-7.29,17.265.9,16.5,8.057-.639,20.846-9.208,28.52-19.056C450.062,229.762,449.678,222.345,441.621,223.112Zm-1.791,16.754c-6.267,8.057-16.754,15.091-23.4,15.6h0c-6.65.512-6.906-5.5-.639-13.557h0c6.267-8.057,16.754-15.091,23.4-15.6C445.714,225.67,446.1,231.809,439.831,239.866Z" transform="translate(-407.578 -223.057)" fill="#ffe65a"/>
          <g id="Group_5" data-name="Group 5" transform="translate(0 18.727)">
            <path id="Path_29" data-name="Path 29" d="M413.1,237.956l2.558-.256c-6.267,8.057-6.011,14.2.639,13.557l-2.43,3.2C405.815,255.221,405.431,247.8,413.1,237.956Z" transform="translate(-407.581 -237.7)" fill="#f4ef89"/>
          </g>
          <g id="Group_6" data-name="Group 6" transform="translate(3.597 3.094)">
            <path id="Path_30" data-name="Path 30" d="M414.878,241.109c6.267-8.057,16.754-15.091,23.4-15.6s6.906,5.5.639,13.557-16.754,15.091-23.4,15.6C408.995,255.305,408.611,249.167,414.878,241.109Z" transform="translate(-410.394 -225.476)" fill="#f9bf05"/>
          </g>
          <path id="Path_31" data-name="Path 31" d="M415.52,242.517c6.267-8.057,16.754-15.091,23.4-15.6,2.174-.128,3.581.384,4.476,1.407-.384-1.918-2.174-3.069-5.116-2.814-6.65.512-17.138,7.546-23.4,15.6-4.22,5.5-5.5,9.976-3.709,12.15C410.66,250.958,412.067,246.993,415.52,242.517Z" transform="translate(-406.799 -222.384)" fill="#d4a205"/>
          <g id="Group_8" data-name="Group 8" transform="translate(0.919 1.589)">
            <g id="Group_7" data-name="Group 7">
              <path id="Path_32" data-name="Path 32" d="M408.3,249.6l5.371,6.778c1.023,1.279,2.814,1.918,5.371,1.663l-5.371-6.778C411.114,251.39,409.323,250.751,408.3,249.6Z" transform="translate(-408.3 -217.243)" fill="#ffc72e"/>
              <path id="Path_33" data-name="Path 33" d="M445.6,224.3c3.837,4.732-4.093,14.963-8.952,19.951-5.883,5.883-16.242,13.3-24.044,14.068l5.371,6.778c12.15-1.023,32.484-18.8,33.891-29.8h0a5.608,5.608,0,0,0-.9-4.093Z" transform="translate(-407.101 -224.3)" fill="#ffa50a"/>
            </g>
          </g>
        </g>
        <g id="Group_14" data-name="Group 14" transform="translate(179.777 31.613)">
          <path id="Path_34" data-name="Path 34" d="M472.043,244.822c-7.29,3.709-15.731,16.37-19.056,28.392h0c-3.325,12.022-.128,18.672,7.034,14.963s15.731-16.37,19.056-28.392C482.4,247.891,479.205,241.113,472.043,244.822Zm4.732,16.242c-2.686,9.848-9.72,20.335-15.731,23.4h0c-5.883,3.069-8.569-2.43-5.883-12.278h0c2.686-9.848,9.72-20.335,15.731-23.4S479.461,251.216,476.775,261.064Z" transform="translate(-451.67 -243.806)" fill="#ffe65a"/>
          <g id="Group_10" data-name="Group 10" transform="translate(0.002 28.257)">
            <path id="Path_35" data-name="Path 35" d="M452.987,267.051l2.3-1.151c-2.686,9.848-.128,15.347,5.883,12.278l-1.023,3.837C452.859,285.723,449.662,279.073,452.987,267.051Z" transform="translate(-451.672 -265.9)" fill="#f4ef89"/>
          </g>
          <g id="Group_11" data-name="Group 11" transform="translate(2.555 4.002)">
            <path id="Path_36" data-name="Path 36" d="M454.732,271.19c2.686-9.848,9.72-20.335,15.731-23.4,5.883-3.069,8.569,2.43,5.883,12.278s-9.72,20.335-15.731,23.4S452.046,281.037,454.732,271.19Z" transform="translate(-453.668 -246.935)" fill="#f9bf05"/>
          </g>
          <path id="Path_37" data-name="Path 37" d="M455.884,272.216c2.686-9.848,9.72-20.335,15.731-23.4,1.918-1.023,3.453-1.023,4.6-.384-1.151-1.663-3.069-2.046-5.755-.639-5.883,3.069-12.917,13.557-15.731,23.4-1.79,6.65-1.279,11.382,1.151,12.661C454.477,281.807,454.349,277.715,455.884,272.216Z" transform="translate(-451.114 -242.936)" fill="#d4a205"/>
          <g id="Group_13" data-name="Group 13" transform="translate(2.724 0.504)">
            <g id="Group_12" data-name="Group 12">
              <path id="Path_38" data-name="Path 38" d="M453.8,279.112l7.546,4.22c1.407.767,3.325.639,5.627-.512l-7.546-4.22C457.125,279.751,455.207,279.879,453.8,279.112Z" transform="translate(-453.8 -234.605)" fill="#ffc72e"/>
              <path id="Path_39" data-name="Path 39" d="M475.821,244.2c5.371,2.942,1.918,15.347-.639,21.869-3.2,7.8-9.848,18.544-16.882,22.125l7.546,4.22c10.871-5.627,22.893-29.671,19.951-40.414h0a5.281,5.281,0,0,0-2.43-3.453Z" transform="translate(-452.545 -244.2)" fill="#ffa50a"/>
            </g>
          </g>
        </g>
        <g id="Group_19" data-name="Group 19" transform="translate(0.664 65.548)">
          <path id="Path_40" data-name="Path 40" d="M356.1,271.568c-7.673-2.814-22.765-.639-33.891,4.988h0c-11.127,5.627-13.94,12.533-6.267,15.347,7.546,2.814,22.765.639,33.891-4.988C360.833,281.287,363.647,274.509,356.1,271.568Zm-8.824,14.452c-9.08,4.6-21.614,6.522-27.753,4.093h0c-6.267-2.3-3.965-7.929,5.116-12.661h0c9.08-4.6,21.614-6.522,27.753-4.093C358.787,275.788,356.357,281.415,347.277,286.019Z" transform="translate(-311.619 -270.34)" fill="#ffe65a"/>
          <g id="Group_15" data-name="Group 15" transform="translate(0 6.343)">
            <path id="Path_41" data-name="Path 41" d="M322.21,275.3l2.43.9c-9.08,4.6-11.382,10.231-5.116,12.661l-3.581,1.79C308.27,287.706,311.083,280.927,322.21,275.3Z" transform="translate(-311.619 -275.3)" fill="#f4ef89"/>
          </g>
          <g id="Group_16" data-name="Group 16" transform="translate(4.375 2.088)">
            <path id="Path_42" data-name="Path 42" d="M323.686,277.123c9.08-4.6,21.614-6.522,27.753-4.093,6.267,2.3,3.965,7.929-5.116,12.533s-21.614,6.522-27.753,4.093C312.3,287.355,314.605,281.727,323.686,277.123Z" transform="translate(-315.04 -271.973)" fill="#f9bf05"/>
          </g>
          <path id="Path_43" data-name="Path 43" d="M323.687,278.646c9.08-4.6,21.614-6.522,27.753-4.093,2.046.767,3.069,1.79,3.453,3.2.512-1.918-.639-3.709-3.453-4.732-6.267-2.3-18.672-.512-27.753,4.093-6.139,3.069-9.208,6.778-8.569,9.464C315.758,284.145,318.7,281.2,323.687,278.646Z" transform="translate(-310.666 -269.873)" fill="#d4a205"/>
          <g id="Group_18" data-name="Group 18" transform="translate(0.104 5.064)">
            <g id="Group_17" data-name="Group 17">
              <path id="Path_44" data-name="Path 44" d="M311.7,284.3l2.046,8.441q.575,2.3,4.22,3.837l-2.046-8.441C313.49,287.242,312.084,285.835,311.7,284.3Z" transform="translate(-311.7 -271.511)" fill="#ffc72e"/>
              <path id="Path_45" data-name="Path 45" d="M359.278,274.3c1.407,6.011-10.1,11.766-16.626,14.2-7.929,2.814-20.335,5.116-27.753,2.43l2.046,8.441c11.382,4.22,37.344-3.2,43.355-12.406h0a5.293,5.293,0,0,0,.9-4.093Z" transform="translate(-310.807 -274.3)" fill="#ffa50a"/>
            </g>
          </g>
        </g>
        <g id="Group_25" data-name="Group 25" transform="translate(61.79 0)">
          <g id="Group_22" data-name="Group 22" transform="translate(0 1.295)">
            <g id="Group_21" data-name="Group 21">
              <path id="Path_46" data-name="Path 46" d="M368.785,220.1c-5.116,3.069-6.778,3.069-8.185,5.5h0l5.883-3.2A6.6,6.6,0,0,1,368.785,220.1Z" transform="translate(-359.084 -220.1)" fill="#d77d14"/>
              <path id="Path_47" data-name="Path 47" d="M372.483,244.9l-5.883,3.2c4.732,5.883,12.406,12.278,18.289,10.1.9-.384,1.79-.9,6.65-3.581C385.912,257.689,377.471,251.167,372.483,244.9Z" transform="translate(-357.41 -213.183)" fill="#d77d14"/>
              <g id="Group_20" data-name="Group 20" transform="translate(0 2.302)">
                <path id="Path_48" data-name="Path 48" d="M366.814,221.9l-5.883,3.2a.969.969,0,0,0-.256.512h0c-3.581,6.778.9,19.951,8.057,28.9l5.883-3.2c-4.86-6.267-9.336-15.731-9.208-23.148A9.949,9.949,0,0,1,366.814,221.9Z" transform="translate(-359.415 -221.9)" fill="#e99709"/>
              </g>
            </g>
          </g>
          <g id="Group_23" data-name="Group 23" transform="translate(3.412)">
            <ellipse id="Ellipse_1" data-name="Ellipse 1" cx="9.72" cy="19.823" rx="9.72" ry="19.823" transform="translate(0 10.056) rotate(-31.151)" fill="#e3ad04"/>
          </g>
          <path id="Path_49" data-name="Path 49" d="M385.044,231.078c-6.65-8.313-14.452-11.127-17.521-6.139a8.391,8.391,0,0,0-1.023,2.686c.128-.384.384-.767.512-1.151,3.069-4.988,11-2.3,17.521,6.139,5.627,7.034,8.441,15.986,7.418,21.486C394,248.855,391.183,238.879,385.044,231.078Z" transform="translate(-357.438 -218.145)" fill="#cf9d04"/>
          <path id="Path_50" data-name="Path 50" d="M386.883,229.989c-8.057-10.231-17.649-13.557-21.358-7.418l.256.256-.256-.256c-3.709,6.139-.256,19.312,7.673,29.415h0c8.057,10.231,17.649,13.557,21.358,7.418S394.94,240.093,386.883,229.989ZM392,256.079c-3.069,4.988-11,2.3-17.521-6.139h0c-6.65-8.313-9.464-19.184-6.395-24.172h0c3.069-4.988,11-2.3,17.521,6.139C392.255,240.221,395.068,251.092,392,256.079Z" transform="translate(-358.126 -218.975)" fill="#e3cc50"/>
          <g id="Group_24" data-name="Group 24" transform="translate(5.853 3.597)">
            <path id="Path_51" data-name="Path 51" d="M365.537,221.9l2.558,3.325c-3.069,4.988-.256,15.859,6.395,24.172l-1.279,1.918C365.281,241.084,361.7,227.911,365.537,221.9Z" transform="translate(-363.991 -221.9)" fill="#deda7c"/>
          </g>
          <path id="Path_52" data-name="Path 52" d="M376.913,230.6c-2.558-3.837-6.395-8.569-9.848-10.1a5.207,5.207,0,0,0-1.535,1.79l.256.256-.256-.256c-3.709,6.011-.384,18.928,7.418,29.031a35.507,35.507,0,0,0,4.348,4.86C382.8,252.345,384.331,241.73,376.913,230.6Z" transform="translate(-358.132 -218.693)" fill="#fff" opacity="0.19"/>
        </g>
        <g id="Group_31" data-name="Group 31" transform="translate(187.202 96.958)">
          <path id="Path_53" data-name="Path 53" d="M466.2,322.141s-3.325-19.567,17.137-26.729c0,0-3.325-.384-4.86-.512h-2.43c-1.279.128-1.535.256-1.79.256h0a1.711,1.711,0,0,0-.639.128c-11.382,2.814-17.9,15.859-15.731,27.5h0a21.979,21.979,0,0,0,2.942,7.8h0c3.069,4.988,7.929,8.569,13.684,9.208h0l4.988.512C475.8,340.046,467.738,332.5,466.2,322.141Z" transform="translate(-457.475 -294.9)" fill="#e99709"/>
          <path id="Path_54" data-name="Path 54" d="M465.4,297.969h10.1a28.681,28.681,0,0,1,5.627-2.558s-3.325-.384-4.86-.512h-2.43c-1.279.128-1.535.256-1.79.256h0a1.712,1.712,0,0,0-.639.128A19.652,19.652,0,0,0,465.4,297.969Z" transform="translate(-455.265 -294.9)" fill="#d77d14"/>
          <path id="Path_55" data-name="Path 55" d="M463.12,300.2a23.548,23.548,0,0,0-4.22,7.162h8.825a22.247,22.247,0,0,1,4.86-7.162Z" transform="translate(-457.078 -293.422)" fill="#f7a00a"/>
          <path id="Path_56" data-name="Path 56" d="M466.341,317H457.9a23.5,23.5,0,0,0,2.814,7.418h0c3.069,4.988,7.929,8.569,13.684,9.208h0l4.988.512C475.8,333.882,468.131,326.848,466.341,317Z" transform="translate(-457.357 -288.736)" fill="#d77d14"/>
          <g id="Group_26" data-name="Group 26" transform="translate(8.728 7.443)">
            <path id="Path_57" data-name="Path 57" d="M477.473,301.206a12.735,12.735,0,0,1,4.86-.384,14.876,14.876,0,0,1,.512,2.3c2.046,11.638-4.6,23.276-14.708,25.962h-.128a20.113,20.113,0,0,1-3.709-8.569v-.256C464.3,311.437,469.671,303.38,477.473,301.206Z" transform="translate(-464.3 -300.719)" fill="#e9bd32"/>
          </g>
          <g id="Group_27" data-name="Group 27" transform="translate(4.916 1.023)">
            <path id="Path_58" data-name="Path 58" d="M477.025,295.7l.639,3.965c-8.7,2.3-14.324,12.278-12.533,22.253l-3.453.9C459.632,310.663,466.538,298.514,477.025,295.7Z" transform="translate(-461.319 -295.7)" fill="#e6e295"/>
          </g>
          <g id="Group_28" data-name="Group 28" transform="translate(8.476 4.476)">
            <path id="Path_59" data-name="Path 59" d="M477.016,298.911a17.509,17.509,0,0,1,4.348-.512,17.258,17.258,0,0,1,1.023,3.069,15.93,15.93,0,0,0-4.86.384c-7.8,2.046-13.173,10.1-13.173,18.928C462.82,311.061,468.447,301.214,477.016,298.911Z" transform="translate(-464.103 -298.4)" fill="#e9bd32"/>
          </g>
          <g id="Group_29" data-name="Group 29" transform="translate(5.403 0.512)">
            <path id="Path_60" data-name="Path 60" d="M477.431,299.776Zm-.128.128Zm-.256,0Zm-.256.128Zm-.128,0Zm-.256.128Zm-.128,0Zm-.256.128Zm-.128.128Zm-.256,0Zm-.128.128Zm-.256.128Zm-.128,0Zm-.256.128Zm-.128.128Zm-.128,0c-.128,0-.128.128,0,0C474.489,301.055,474.489,300.927,474.617,300.927Zm-.256.128Zm-.128.128Zm-.256.128Zm-.128.128Zm-.128,0c-.128,0-.128.128,0,0C473.594,301.567,473.594,301.439,473.722,301.439Zm-.256.128Zm-.128.128Zm-.256.128Zm-.128.128Zm-.128.128Zm-.256.128Zm-.128.128Zm-.128.128Zm-.128.128Zm-.256.128Zm-.128.128Zm-.128.128Zm-.256.128Zm-.128.128Zm-.128.128Zm-.128.128Zm-.128.128Zm-.256.128Zm-.128.128Zm-.128.256Zm-.128.128Zm-.128.128Zm-.128.128Zm-.128.128c0,.128-.128.128,0,0C469.757,304.764,469.885,304.764,469.885,304.636Zm-.128.256Zm-.256.128Zm-.128.128Zm10.359-9.848c-.767.128-1.535.256-2.43.384h-.512l.639,3.965a17.507,17.507,0,0,1,4.348-.512A14.023,14.023,0,0,0,479.733,295.3Zm-14.708,26.474a.967.967,0,0,0-.128-.512C464.9,321.39,465.025,321.518,465.025,321.774Zm-.128-.512v0Zm.128.767v0Zm-3.325.9v.256a21.978,21.978,0,0,0,2.941,7.8,14.37,14.37,0,0,0,4.093-.512,20.112,20.112,0,0,1-3.709-8.569Zm3.2-2.174v0Zm0-.128v0Zm-.128-.256v0Zm0-.256v0Zm0-.256v0Zm0-.256v0Zm0-.128v0Zm0-.256v0Zm0-.256v0Zm0-.256v0Zm0-.256v0Zm0-.128v0Zm0-.767v0Zm0-.639a17.291,17.291,0,0,1,.639-3.709A31.96,31.96,0,0,0,464.769,316.914Zm.639-3.709v0Zm0-.256v-.128C465.537,312.821,465.537,312.949,465.409,312.949Zm.128-.256v0Zm0-.128v-.128C465.665,312.438,465.537,312.438,465.537,312.565Zm.128-.256v0Zm0-.256v-.128C465.792,312.054,465.665,312.054,465.665,312.054Zm.128-.128Zm0-.256c.128,0,.128-.128,0,0C465.92,311.542,465.92,311.67,465.792,311.67Zm.128-.256Zm.128-.128Zm0-.256Zm.128-.256Zm0-.128Zm.128-.256Zm.128-.128Zm0-.256Zm.128-.256Zm.128-.128Zm0-.256Zm.128-.128Zm.128-.256Zm.128-.128Zm0-.256Zm.128-.128Zm.128-.256Zm.128-.128Zm.128-.256Zm.128-.128Zm0-.256Zm.128-.128Zm.128-.128Zm.128-.256Zm.128-.128Zm.128-.256Zm.128-.128Zm.128-.128Zm.128-.256Zm.128-.128Zm.128-.128Zm.128-.256Zm.128-.128ZM464.9,320.75v0Z" transform="translate(-461.7 -295.3)" fill="#e9d771"/>
          </g>
          <g id="Group_30" data-name="Group 30" transform="translate(5.531 0.482)">
            <path id="Path_61" data-name="Path 61" d="M477.659,295.69c10.359-2.3,20.207,5.244,22.253,17.01,2.046,12.15-4.732,24.3-15.347,27.113-10.359,2.814-20.463-4.476-22.765-16.37a23.094,23.094,0,0,0,2.814,7.546,14.369,14.369,0,0,0,4.093-.512c3.709,4.6,9.336,6.906,15.091,5.371,8.7-2.3,14.324-12.278,12.533-22.253v-.256c-1.535-8.057-7.546-13.684-14.452-14.068a29.008,29.008,0,0,0-2.174-3.965C479.065,295.434,478.3,295.562,477.659,295.69Z" transform="translate(-461.8 -295.277)" fill="#e9d352"/>
          </g>
          <path id="Path_62" data-name="Path 62" d="M494.952,312.724v-.256c-1.535-8.057-7.546-13.684-14.452-14.068a17.253,17.253,0,0,1,1.023,3.069,14.872,14.872,0,0,1,.512,2.3c2.046,11.638-4.6,23.276-14.708,25.962H467.2c3.709,4.6,9.336,6.906,15.091,5.371C490.988,332.8,496.615,322.7,494.952,312.724Z" transform="translate(-454.763 -293.924)" fill="#e9b205"/>
          <path id="Path_63" data-name="Path 63" d="M492.637,312.724v-.256c-1.535-8.057-7.546-13.684-14.452-14.068,0,.128.128.128.128.256,6.011,1.279,11,6.522,12.406,13.812v.256c1.663,9.976-3.965,19.951-12.533,22.253a9.734,9.734,0,0,1-2.686.384,14.051,14.051,0,0,0,4.6-.384C488.673,332.8,494.3,322.7,492.637,312.724Z" transform="translate(-452.448 -293.924)" fill="#d4a205"/>
        </g>
      </g>
    </g>
  </g>
</svg>
