<svg xmlns="http://www.w3.org/2000/svg" width="15" height="15" viewBox="0 0 15 15">
  <g id="Group_75" data-name="Group 75" transform="translate(-1476 -585)">
    <rect id="Rectangle_58" data-name="Rectangle 58" width="15" height="15" transform="translate(1476 585)" fill="none"/>
    <g id="cross" transform="translate(1376.191 415.23)">
      <path id="Path_169" data-name="Path 169" d="M251.078,173.884a.392.392,0,0,0-.554,0l-3.048,3.048-3.048-3.048a.392.392,0,0,0-.554.554l3.048,3.048-3.048,3.048a.392.392,0,0,0,.554.554l3.048-3.048,3.048,3.048a.392.392,0,0,0,.554-.554l-3.048-3.048,3.048-3.048a.392.392,0,0,0,0-.554Z" transform="translate(-139.95)" fill="#8e8e8e"/>
    </g>
  </g>
</svg>
