<svg xmlns="http://www.w3.org/2000/svg" width="24" height="24" viewBox="0 0 24 24">
  <g id="Discord" transform="translate(-1466 -1562)">
    <rect id="Rectangle_33" data-name="Rectangle 33" width="24" height="24" rx="4" transform="translate(1466 1562)" fill="#6841b4"/>
    <path id="_8546766_discord_icon" data-name="8546766_discord_icon" d="M37.765,32.892a.035.035,0,0,0-.018-.017A11.447,11.447,0,0,0,34.923,32a.043.043,0,0,0-.045.021,7.963,7.963,0,0,0-.352.722,10.569,10.569,0,0,0-3.172,0A7.3,7.3,0,0,0,31,32.021.045.045,0,0,0,30.951,32a11.415,11.415,0,0,0-2.825.876.04.04,0,0,0-.019.016,11.7,11.7,0,0,0-2.05,7.895.048.048,0,0,0,.018.032,11.509,11.509,0,0,0,3.465,1.751.045.045,0,0,0,.049-.016A8.218,8.218,0,0,0,30.3,41.4a.044.044,0,0,0-.024-.061,7.58,7.58,0,0,1-1.082-.516.044.044,0,0,1,0-.074c.073-.054.146-.111.215-.168a.043.043,0,0,1,.045-.006,8.209,8.209,0,0,0,6.974,0,.043.043,0,0,1,.045.006c.069.057.142.114.216.169a.044.044,0,0,1,0,.074,7.113,7.113,0,0,1-1.083.515.044.044,0,0,0-.024.062,9.228,9.228,0,0,0,.708,1.152.044.044,0,0,0,.049.017A11.47,11.47,0,0,0,39.8,40.819a.044.044,0,0,0,.018-.032A11.626,11.626,0,0,0,37.765,32.892Zm-7.128,6.319a1.407,1.407,0,0,1,0-2.8,1.407,1.407,0,0,1,0,2.8Zm4.611,0a1.407,1.407,0,0,1,0-2.8,1.407,1.407,0,0,1,0,2.8Z" transform="translate(1445 1537.001)" fill="#fff"/>
  </g>
</svg>
