<svg xmlns="http://www.w3.org/2000/svg" width="15.395" height="15.366" viewBox="0 0 15.395 15.366">
  <g id="download2" transform="translate(-83.969 -58.102)">
    <path id="Path_157" data-name="Path 157" d="M143.078,360.667v3.408a.778.778,0,0,1-.024.189.732.732,0,0,1-.712.587H128.414a.729.729,0,0,1-.722-.65.573.573,0,0,1-.01-.131v-3.408a.727.727,0,0,1,1.454,0v2.729h12.492v-2.729a.727.727,0,0,1,1.241-.514.769.769,0,0,1,.208.519Z" transform="translate(-43.713 -291.382)" fill="#3828be"/>
    <path id="Path_158" data-name="Path 158" d="M230.533,65.872l-3.573,3.573c0,.01-.015.015-.019.019a.841.841,0,0,1-.47.237c-.015,0-.029,0-.044,0a.524.524,0,0,1-.087,0l-.082,0c-.015,0-.029,0-.044,0a.826.826,0,0,1-.47-.237l-.019-.019-3.573-3.573a.85.85,0,0,1,1.2-1.2l2.147,2.147V58.95a.852.852,0,0,1,.848-.848.867.867,0,0,1,.6.247.838.838,0,0,1,.247.6v7.867l2.147-2.147a.854.854,0,0,1,1.2,0,.868.868,0,0,1-.014,1.2Z" transform="translate(-134.673)" fill="#3828be"/>
  </g>
</svg>
