<svg xmlns="http://www.w3.org/2000/svg" width="13.759" height="11.443" viewBox="0 0 13.759 11.443">
  <g id="email" transform="translate(-109.364 -140.558)">
    <path id="Path_172" data-name="Path 172" d="M195.6,164.08l-6.306,6.306a.553.553,0,0,1-.413.161.658.658,0,0,1-.413-.161l-6.306-6.306a1.631,1.631,0,0,0-.161.734v8.026a1.732,1.732,0,0,0,1.72,1.72h10.319a1.732,1.732,0,0,0,1.72-1.72v-8.026A1.909,1.909,0,0,0,195.6,164.08Z" transform="translate(-72.638 -22.559)" fill="#fff"/>
    <path id="Path_173" data-name="Path 173" d="M211.969,146.612l5.893-5.893a1.631,1.631,0,0,0-.734-.161H206.81a1.909,1.909,0,0,0-.734.161Z" transform="translate(-95.726)" fill="#fff"/>
  </g>
</svg>
