<svg xmlns="http://www.w3.org/2000/svg" width="38" height="38" viewBox="0 0 38 38">
  <g id="Group_91" data-name="Group 91" transform="translate(-1517 -572)">
    <circle id="Ellipse_3" data-name="Ellipse 3" cx="19" cy="19" r="19" transform="translate(1517 572)" fill="#fff"/>
    <path id="Filter" d="M1.041,13.534A1.041,1.041,0,0,1,.92,11.459l.121-.007H12.493a3.123,3.123,0,0,1,3.123-3.123H17.7a3.123,3.123,0,0,1,3.123,3.123v2.082A3.123,3.123,0,0,1,17.7,16.657H15.616a3.123,3.123,0,0,1-3.123-3.123ZM17.7,10.411H15.616a1.041,1.041,0,0,0-1.034.92l-.007.121v2.082a1.041,1.041,0,0,0,.92,1.034l.121.007H17.7a1.041,1.041,0,0,0,1.034-.92l.007-.121V11.452a1.041,1.041,0,0,0-.92-1.034ZM5.205,0A3.123,3.123,0,0,1,8.329,3.123H19.78A1.041,1.041,0,0,1,19.9,5.2l-.121.007H8.329A3.123,3.123,0,0,1,5.205,8.329H3.123A3.123,3.123,0,0,1,0,5.205V3.123A3.123,3.123,0,0,1,3.123,0Zm0,2.082H3.123A1.041,1.041,0,0,0,2.089,3l-.007.121V5.205A1.041,1.041,0,0,0,3,6.239l.121.007H5.205a1.041,1.041,0,0,0,1.034-.92l.007-.121V3.123a1.041,1.041,0,0,0-.92-1.034Z" transform="translate(1526 583)"/>
  </g>
</svg>
