<svg id="Footer" xmlns="http://www.w3.org/2000/svg" width="1920" height="299" viewBox="0 0 1920 299">
  <rect id="Rectangle_30" data-name="Rectangle 30" width="1920" height="299" fill="#512c99"/>
  <text id="Lorem_ipsum_dolor_sit_amet_consectetur_adipiscing_ibulum_gravida_semper_enim_vel_fermentum._Ut_neque_odio_tincidunt_ut_congue_ac_gravida_ut_enim." data-name="Lorem ipsum dolor sit amet, consectetur adipiscing ibulum gravida semper enim vel fermentum. Ut neque odio, tincidunt ut congue ac, gravida ut enim." transform="translate(360 94)" fill="#fff" font-size="15" font-family="Poppins-Regular, Poppins"><tspan x="0" y="16">Lorem ipsum dolor sit amet, consectetur </tspan><tspan x="0" y="39">adipiscing ibulum gravida semper enim vel </tspan><tspan x="0" y="62">fermentum. Ut neque odio, tincidunt ut congue ac, </tspan><tspan x="0" y="85">gravida ut enim.</tspan></text>
  <text id="Projects" transform="translate(829 63)" fill="#fff" font-size="14" font-family="Poppins-Medium, Poppins" font-weight="500"><tspan x="0" y="0">Projects</tspan></text>
  <text id="Terms_and_Conditions" data-name="Terms and Conditions" transform="translate(1017 63)" fill="#fff" font-size="14" font-family="Poppins-Medium, Poppins" font-weight="500"><tspan x="0" y="0">Terms and Conditions</tspan></text>
  <text id="Privacy_Policy" data-name="Privacy Policy" transform="translate(1017 112)" fill="#fff" font-size="14" font-family="Poppins-Medium, Poppins" font-weight="500"><tspan x="0" y="0">Privacy Policy</tspan></text>
  <text id="How_it_works" data-name="How it works" transform="translate(829 112)" fill="#fff" font-size="14" font-family="Poppins-Medium, Poppins" font-weight="500"><tspan x="0" y="0">How it works</tspan></text>
  <text id="Stake" transform="translate(829 161)" fill="#fff" font-size="14" font-family="Poppins-Medium, Poppins" font-weight="500"><tspan x="0" y="0">Stake</tspan></text>
  <text id="Contact_Us" data-name="Contact Us" transform="translate(829 210)" fill="#fff" font-size="14" font-family="Poppins-Medium, Poppins" font-weight="500"><tspan x="0" y="0">Contact Us</tspan></text>
  <text id="_2022_RunCrypto_LLC" data-name="2022 © RunCrypto LLC" transform="translate(360 244)" fill="#fff" font-size="15" font-family="Poppins-Regular, Poppins"><tspan x="0" y="0">2022 © RunCrypto LLC</tspan></text>
  <g id="Group_41" data-name="Group 41" transform="translate(28 -1500)">
    <rect id="Rectangle_31" data-name="Rectangle 31" width="24" height="24" rx="4" transform="translate(1400 1562)" fill="#6841b4"/>
    <g id="_216078_facebook_social_icon" data-name="216078_facebook_social_icon" transform="translate(1401 1563)">
      <path id="Path_119" data-name="Path 119" d="M12.073,9.073H14.61V11.61H12.073v5.919H9.537V11.61H7V9.073H9.537V8.012a4.793,4.793,0,0,1,.945-2.97A3.044,3.044,0,0,1,12.838,4H14.61V6.537H12.834a.76.76,0,0,0-.761.76Z" fill="#fff"/>
    </g>
  </g>
  <g id="Group_42" data-name="Group 42" transform="translate(29 -1500)">
    <rect id="Rectangle_32" data-name="Rectangle 32" width="24" height="24" rx="4" transform="translate(1433 1562)" fill="#6841b4"/>
    <path id="_104501_twitter_bird_icon" data-name="104501_twitter_bird_icon" d="M17.234,11.64a5.576,5.576,0,0,1-1.61.441,2.808,2.808,0,0,0,1.232-1.551,5.61,5.61,0,0,1-1.78.68A2.8,2.8,0,0,0,10.3,13.767a7.957,7.957,0,0,1-5.777-2.928,2.806,2.806,0,0,0,.867,3.742,2.8,2.8,0,0,1-1.269-.351c0,.012,0,.024,0,.035a2.8,2.8,0,0,0,2.248,2.748,2.818,2.818,0,0,1-.738.1,2.777,2.777,0,0,1-.527-.05,2.806,2.806,0,0,0,2.618,1.946,5.655,5.655,0,0,1-4.149,1.16,7.97,7.97,0,0,0,12.27-6.715q0-.182-.008-.363A5.676,5.676,0,0,0,17.234,11.64Z" transform="translate(1435.006 1558.145)" fill="#fff"/>
  </g>
  <g id="Group_43" data-name="Group 43" transform="translate(31 -1500)">
    <rect id="Rectangle_33" data-name="Rectangle 33" width="24" height="24" rx="4" transform="translate(1466 1562)" fill="#6841b4"/>
    <path id="_8546766_discord_icon" data-name="8546766_discord_icon" d="M37.765,32.892a.035.035,0,0,0-.018-.017A11.447,11.447,0,0,0,34.923,32a.043.043,0,0,0-.045.021,7.963,7.963,0,0,0-.352.722,10.569,10.569,0,0,0-3.172,0A7.3,7.3,0,0,0,31,32.021.045.045,0,0,0,30.951,32a11.415,11.415,0,0,0-2.825.876.04.04,0,0,0-.019.016,11.7,11.7,0,0,0-2.05,7.895.048.048,0,0,0,.018.032,11.509,11.509,0,0,0,3.465,1.751.045.045,0,0,0,.049-.016A8.218,8.218,0,0,0,30.3,41.4a.044.044,0,0,0-.024-.061,7.58,7.58,0,0,1-1.082-.516.044.044,0,0,1,0-.074c.073-.054.146-.111.215-.168a.043.043,0,0,1,.045-.006,8.209,8.209,0,0,0,6.974,0,.043.043,0,0,1,.045.006c.069.057.142.114.216.169a.044.044,0,0,1,0,.074,7.113,7.113,0,0,1-1.083.515.044.044,0,0,0-.024.062,9.228,9.228,0,0,0,.708,1.152.044.044,0,0,0,.049.017A11.47,11.47,0,0,0,39.8,40.819a.044.044,0,0,0,.018-.032A11.626,11.626,0,0,0,37.765,32.892Zm-7.128,6.319a1.407,1.407,0,0,1,0-2.8,1.407,1.407,0,0,1,0,2.8Zm4.611,0a1.407,1.407,0,0,1,0-2.8,1.407,1.407,0,0,1,0,2.8Z" transform="translate(1445 1537.001)" fill="#fff"/>
  </g>
  <g id="Group_40" data-name="Group 40" transform="translate(33 -1500)">
    <rect id="Rectangle_34" data-name="Rectangle 34" width="24" height="24" rx="4" transform="translate(1498 1562)" fill="#6841b4"/>
    <path id="_211912_reddit_social_icon" data-name="211912_reddit_social_icon" d="M45.514,69.837a1.557,1.557,0,0,0-1.545-1.567,1.526,1.526,0,0,0-1.049.415,7.569,7.569,0,0,0-3.9-1.267l.684-2.285,2.094.421a1.4,1.4,0,0,0,1.383,1.261H43.2a1.408,1.408,0,0,0,0-2.815h-.009a1.385,1.385,0,0,0-1.233.758l-2.8-.562-.961,3.215-.078,0a7.626,7.626,0,0,0-4.017,1.27,1.52,1.52,0,0,0-1.049-.415,1.571,1.571,0,0,0-.7,2.965,2.852,2.852,0,0,0-.037.462c0,2.366,2.778,4.288,6.2,4.288s6.2-1.923,6.2-4.292a3.252,3.252,0,0,0-.034-.462A1.567,1.567,0,0,0,45.514,69.837Zm-12.944.627A.786.786,0,0,1,33,69.031a.771.771,0,0,1,.468.159A3.084,3.084,0,0,0,32.571,70.464Zm10.1-5.056a.515.515,0,1,1,.515.524A.522.522,0,0,1,42.668,65.408Zm-7.2,5.6a.993.993,0,1,1,.993.993A.991.991,0,0,1,35.464,71Zm3.043,3.483a3.571,3.571,0,0,1-2.41-.927l.393-.387a2.977,2.977,0,0,0,2.016.762,3.032,3.032,0,0,0,2.013-.762l.393.387A3.559,3.559,0,0,1,38.507,74.487ZM40.576,72A.993.993,0,1,1,41.569,71,.991.991,0,0,1,40.576,72Zm3.873-1.52a3.131,3.131,0,0,0-.915-1.292.765.765,0,0,1,.474-.162.8.8,0,0,1,.44,1.454Z" transform="translate(1471.5 1504)" fill="#fff"/>
  </g>
  <g id="Learn2Earn" transform="translate(12.8 -72.13)">
    <text id="LEARN_TO_EARN" data-name="LEARN TO EARN" transform="translate(381.213 139.805)" fill="#fff" font-size="19" font-family="Poppins" font-weight="700"><tspan x="0" y="0">LEARN TO EARN</tspan></text>
    <path id="Path_135" data-name="Path 135" d="M348.366,260.152a1.027,1.027,0,1,1-1.026,1.027,1.025,1.025,0,0,1,1.026-1.027Zm14.218-1.612a.843.843,0,1,1-.843.843.844.844,0,0,1,.843-.843Zm-8.142,3.848-.568,1.69a1.281,1.281,0,1,1-.8-.28,1.526,1.526,0,0,1,.284.031l.52-1.546a1.28,1.28,0,1,1,1.651-.6l2.311,1.59a1.261,1.261,0,0,1,.83-.306c.057,0,.109,0,.166.009l.467-1.389a1.278,1.278,0,1,1,.7.21c-.057,0-.114,0-.166-.009l-.467,1.389a1.279,1.279,0,1,1-1.979,1.07,1.318,1.318,0,0,1,.1-.511l-2.337-1.607a1.236,1.236,0,0,1-.716.262Zm6.95-.135a.69.69,0,1,0,.69.69.689.689,0,0,0-.69-.69Zm-10.536-2.263a.629.629,0,1,1-.629.629.629.629,0,0,1,.629-.629Zm8.326-3.49a.629.629,0,1,1-.629.629.629.629,0,0,1,.629-.629Zm-.21,9.544a.673.673,0,1,0,.673.673.673.673,0,0,0-.673-.673Zm5.7-2.276a.843.843,0,1,1-.843.843.844.844,0,0,1,.843-.843Zm-4.831,4.643a1,1,0,1,1-1,1,1,1,0,0,1,1-1Zm4.22-7.579a.843.843,0,1,1-.843.843.844.844,0,0,1,.843-.843Zm-6.552-2.311a.843.843,0,1,0,.843.843.844.844,0,0,0-.843-.843Zm4.761,7.085a1.28,1.28,0,1,0,1.28,1.28,1.279,1.279,0,0,0-1.28-1.28ZM350.7,262.856a.629.629,0,1,1-.629.629.629.629,0,0,1,.629-.629Zm1.018-5.5a.629.629,0,1,1-.629.629.629.629,0,0,1,.629-.629Zm3.534-.786a1,1,0,1,1-1,1,1,1,0,0,1,1-1Zm.695,8.439a.843.843,0,1,0,.843.843.844.844,0,0,0-.843-.843Zm-8.116-1.686a.633.633,0,1,1-.633.633A.634.634,0,0,1,347.833,263.323Z" transform="translate(0 -130.724)" fill="#fff" fill-rule="evenodd"/>
    <path id="Path_136" data-name="Path 136" d="M461.654,164.772c-1.913-8.588-13.786-10.816-21.054-6.146,10.484-2.852,21.963,4.565,15.415,12.576-1.568,1.918-4.372,3.875-6.836,10.741-.384,1.075-1.088,2.42-1.358,3.35a14.512,14.512,0,0,1,3.355-2.6c5.063-2.621,7.788,1.245,9.841-.4.708-.568.157-2.062.253-3.093,1.11-.577,1.1-.284.764-1.415l.511-.463c.328-.3.376-.205.245-.6l-.3-.891c.45-.406.9-.808,1.354-1.214.747-.668.476-.786-.118-1.695A9.633,9.633,0,0,1,461.965,169,36.049,36.049,0,0,0,461.654,164.772Z" transform="translate(-89.32 -34.838)" fill="#fff" fill-rule="evenodd"/>
  </g>
</svg>
