<svg xmlns="http://www.w3.org/2000/svg" width="67.029" height="56.711" viewBox="0 0 67.029 56.711">
  <g id="Layer_2" data-name="Layer 2" transform="translate(0 0.011)">
    <g id="Layer_1" data-name="Layer 1" transform="translate(0 -0.011)">
      <path id="Path_87" data-name="Path 87" d="M57.568,7.411,49.5,11.523,10.524,31.374A23.214,23.214,0,0,1,44.863,8.1l4.62-2.354.689-.352A28.359,28.359,0,0,0,5.156,28.351q0,1.083.082,2.158a5.158,5.158,0,0,1-2.8,4.985L0,36.737V42.53l7.172-3.655h0L9.494,37.69l2.289-1.166h0L52.869,15.59l4.617-2.351,9.543-4.864V2.584Z" transform="translate(0 0.011)"/>
      <path id="Path_88" data-name="Path 88" d="M67.029,50,14.117,76.941,9.5,79.3,0,84.138v5.788l9.435-4.807,8.071-4.112L56.519,61.128a23.665,23.665,0,0,1,.2,3.051A23.217,23.217,0,0,1,22.145,84.416l-.284.15-5.008,2.552A28.359,28.359,0,0,0,61.873,64.179c0-.729-.028-1.458-.082-2.178a5.161,5.161,0,0,1,2.8-4.985l2.439-1.242Z" transform="translate(0 -35.818)"/>
    </g>
  </g>
</svg>
