<svg xmlns="http://www.w3.org/2000/svg" width="20.002" height="21.597" viewBox="0 0 20.002 21.597">
  <g id="noun-certificate-4975625" transform="translate(-96.048 -46.466)">
    <path id="Path_131" data-name="Path 131" d="M152.176,46.666H135.227a1.062,1.062,0,0,0-1.059,1.059v15.89a1.062,1.062,0,0,0,1.059,1.059H145l-.233,2.6a.537.537,0,0,0,.254.5.524.524,0,0,0,.567-.016l1.3-.863,1.3.863a.537.537,0,0,0,.291.09.545.545,0,0,0,.27-.074.527.527,0,0,0,.254-.5l-.233-2.6h1.3a1.062,1.062,0,0,0,1.059-1.059V51.962h2.119a.531.531,0,0,0,.53-.53V48.255a1.594,1.594,0,0,0-1.589-1.589Zm-4.449,15.111a1.6,1.6,0,0,1-1.695,0,1.566,1.566,0,0,1-.741-1.34,1.589,1.589,0,1,1,3.178,0,1.565,1.565,0,0,1-.741,1.34Zm-.551,4.041a.538.538,0,0,0-.588,0l-.667.445.3-3.273a2.517,2.517,0,0,0,1.335,0l.3,3.273-.667-.445Zm2.887-2.209H148.67l-.1-1.133a2.648,2.648,0,1,0-3.368,0l-.1,1.133h-9.873V47.725h14.926a1.589,1.589,0,0,0-.1.53v15.36ZM152.711,50.9h-1.589V48.255a.531.531,0,0,1,.53-.53h.53a.531.531,0,0,1,.53.53V50.9Z" transform="translate(-37.92)" fill="#fff" stroke="#fff" stroke-width="0.4"/>
    <path id="Path_132" data-name="Path 132" d="M203.625,116.666H193.032a.53.53,0,0,0,0,1.059h10.593a.53.53,0,0,0,0-1.059Z" transform="translate(-93.606 -66.822)" fill="#fff" stroke="#fff" stroke-width="0.4"/>
    <path id="Path_133" data-name="Path 133" d="M203.625,198.33H193.032a.53.53,0,0,0,0,1.059h10.593a.53.53,0,0,0,0-1.059Z" transform="translate(-93.606 -144.779)" fill="#fff" stroke="#fff" stroke-width="0.4"/>
    <path id="Path_134" data-name="Path 134" d="M198.858,280h-5.826a.53.53,0,1,0,0,1.059h5.826a.53.53,0,1,0,0-1.059Z" transform="translate(-93.606 -222.741)" fill="#fff" stroke="#fff" stroke-width="0.4"/>
  </g>
</svg>
