<svg xmlns="http://www.w3.org/2000/svg" width="114" height="114" viewBox="0 0 114 114">
  <g id="Group_44" data-name="Group 44" transform="translate(-437 -215)">
    <rect id="Rectangle_36" data-name="Rectangle 36" width="114" height="114" rx="57" transform="translate(437 215)" fill="#fff"/>
    <g id="bunny-color" transform="translate(458.957 235.584)">
      <path id="Path_75" data-name="Path 75" d="M38.018,72.786C27.21,72.778,18.5,70.211,12.422,65.6A23.008,23.008,0,0,1,3,46.817,21.536,21.536,0,0,1,9.945,30.872a30.612,30.612,0,0,1,8.3-5.54c-.5-1.525-1.128-3.522-1.689-5.585a35.971,35.971,0,0,1-1.486-8.371,12.806,12.806,0,0,1,2.286-7.821A9.2,9.2,0,0,1,24.962,0a8.87,8.87,0,0,1,6.27,2.5A13.994,13.994,0,0,1,34.6,8.1,44.954,44.954,0,0,1,36.517,21h3.057A44.957,44.957,0,0,1,41.491,8.1,13.994,13.994,0,0,1,44.859,2.5,8.869,8.869,0,0,1,51.128,0a9.2,9.2,0,0,1,7.606,3.556,12.806,12.806,0,0,1,2.286,7.821,35.955,35.955,0,0,1-1.486,8.371c-.56,2.062-1.187,4.059-1.689,5.585a30.612,30.612,0,0,1,8.3,5.54,21.537,21.537,0,0,1,6.946,15.945A23.008,23.008,0,0,1,63.669,65.6c-6.083,4.611-14.789,7.178-25.6,7.186Z" transform="translate(-3 0)" fill="#633001" fill-rule="evenodd"/>
      <path id="Path_76" data-name="Path 76" d="M30,7.288c-4.608,0-6.73,3.44-6.73,8.2,0,3.782,2.465,11.355,3.476,14.3a1.325,1.325,0,0,1-.782,1.647c-3.694,1.457-14.593,6.793-14.593,19.012,0,12.871,11.077,22.577,31.5,22.592h.049c20.427-.016,31.5-9.721,31.5-22.592,0-12.219-10.9-17.555-14.593-19.012a1.325,1.325,0,0,1-.782-1.647c1.011-2.948,3.476-10.522,3.476-14.3,0-4.758-2.121-8.2-6.73-8.2-6.634,0-8.287,9.4-8.405,19.493A1.23,1.23,0,0,1,46.164,28H39.628a1.23,1.23,0,0,1-1.225-1.22C38.284,16.691,36.631,7.288,30,7.288Z" transform="translate(-7.851 -4.225)" fill="#d1884f"/>
      <path id="Path_77" data-name="Path 77" d="M42.924,148.182c-15.01,0-31.53-9.346-31.556-21.445,0,.018,0,.037,0,.056,0,14.977,11.1,26.267,31.556,26.267s31.556-11.29,31.556-26.267v-.056C74.454,138.836,57.934,148.182,42.924,148.182Z" transform="translate(-7.851 -84.161)" fill="#fedc90"/>
      <path id="Path_78" data-name="Path 78" d="M63.722,109.329c0,4.085-1.93,6.212-4.312,6.212s-4.312-2.127-4.312-6.212,1.93-6.212,4.312-6.212S63.722,105.244,63.722,109.329Z" transform="translate(-36.342 -66.297)" fill="#633001"/>
      <path id="Path_79" data-name="Path 79" d="M130.4,109.329c0,4.085-1.93,6.212-4.311,6.212s-4.312-2.127-4.312-6.212,1.93-6.212,4.312-6.212S130.4,105.244,130.4,109.329Z" transform="translate(-79.013 -66.297)" fill="#633001"/>
    </g>
  </g>
</svg>
