<svg xmlns="http://www.w3.org/2000/svg" width="22" height="22" viewBox="0 0 22 22">
  <g id="Group_109" data-name="Group 109" transform="translate(-1679 -64)">
    <rect id="Rectangle_72" data-name="Rectangle 72" width="22" height="22" transform="translate(1679 64)" fill="none"/>
    <g id="noun-user-1199845" transform="translate(1468.917 -68.746)">
      <path id="Path_124" data-name="Path 124" d="M228.946,153.454H212.984a.9.9,0,0,1-.9-.976,6.638,6.638,0,0,1,6.58-6.057h4.6a6.638,6.638,0,0,1,6.58,6.057.9.9,0,0,1-.9.976Zm-14.879-1.8h13.8a4.833,4.833,0,0,0-4.6-3.426h-4.6a4.833,4.833,0,0,0-4.6,3.426Zm6.9-6.672a4.265,4.265,0,0,1-4.261-4.261V139a4.261,4.261,0,1,1,8.521,0v1.713A4.265,4.265,0,0,1,220.965,144.979Zm0-8.431A2.46,2.46,0,0,0,218.508,139v1.713a2.457,2.457,0,1,0,4.914,0V139A2.46,2.46,0,0,0,220.965,136.548Z" transform="translate(0)" fill="#cfedff" stroke="#cfedff" stroke-width="1"/>
    </g>
  </g>
</svg>
