<svg xmlns="http://www.w3.org/2000/svg" xmlns:xlink="http://www.w3.org/1999/xlink" width="110" height="124" viewBox="0 0 110 124">
  <defs>
    <filter id="Polygon_1" x="0" y="0" width="110" height="124" filterUnits="userSpaceOnUse">
      <feOffset dy="3" input="SourceAlpha"/>
      <feGaussianBlur stdDeviation="3" result="blur"/>
      <feFlood flood-opacity="0.129"/>
      <feComposite operator="in" in2="blur"/>
      <feComposite in="SourceGraphic"/>
    </filter>
  </defs>
  <g transform="matrix(1, 0, 0, 1, 0, 0)" filter="url(#Polygon_1)">
    <g id="Polygon_1-2" data-name="Polygon 1" transform="translate(101 6) rotate(90)" fill="rgba(255,255,255,0.9)">
      <path d="M 95.61906433105469 90.99999237060547 L 10.38094329833984 90.99999237060547 C 8.574329376220703 90.99999237060547 6.95603609085083 90.06618499755859 6.051996231079102 88.50204467773438 C 5.147956371307373 86.93791198730469 5.146622657775879 85.06952667236328 6.048436164855957 83.50410461425781 L 48.66748809814453 9.523848533630371 C 49.57079696655273 7.955861568450928 51.19042205810547 7.019742012023926 52.99999618530273 7.019742012023926 C 54.8095703125 7.019742012023926 56.42919540405273 7.955861568450928 57.33250427246094 9.523848533630371 L 99.95155334472656 83.50410461425781 C 100.8533706665039 85.06952667236328 100.8520355224609 86.93791198730469 99.947998046875 88.50204467773438 C 99.04395294189453 90.06618499755859 97.4256591796875 90.99999237060547 95.61906433105469 90.99999237060547 Z" stroke="none"/>
      <path d="M 52.99999618530273 8.019737243652344 C 51.55233764648438 8.019737243652344 50.25663757324219 8.768630981445312 49.53399658203125 10.02303314208984 L 6.914939880371094 84.00328063964844 C 6.1934814453125 85.25560760498047 6.194549560546875 86.75032043457031 6.91778564453125 88.00163269042969 C 7.641021728515625 89.25293731689453 8.935653686523438 89.99999237060547 10.38093566894531 89.99999237060547 L 95.61904907226562 89.99999237060547 C 97.06433868408203 89.99999237060547 98.35897827148438 89.25294494628906 99.08221435546875 88.00163269042969 C 99.80543518066406 86.75033569335938 99.80651092529297 85.25562286376953 99.08505249023438 84.00328063964844 L 56.46599578857422 10.02303314208984 C 55.74335479736328 8.768630981445312 54.44765472412109 8.019737243652344 52.99999618530273 8.019737243652344 M 52.99999618530273 6.019737243652344 C 55.0224609375 6.019737243652344 57.04492568969727 7.021385192871094 58.19899749755859 9.024673461914062 L 100.8180541992188 83.00492095947266 C 103.1223983764648 87.00492095947266 100.2353363037109 91.99999237060547 95.61904907226562 91.99999237060547 L 10.38093566894531 91.99999237060547 C 5.764671325683594 91.99999237060547 2.877593994140625 87.00492095947266 5.181938171386719 83.00492095947266 L 47.80099487304688 9.024673461914062 C 48.9550666809082 7.021385192871094 50.97753143310547 6.019737243652344 52.99999618530273 6.019737243652344 Z" stroke="none" fill="#fff"/>
    </g>
  </g>
</svg>
