<svg xmlns="http://www.w3.org/2000/svg" width="24" height="24" viewBox="0 0 24 24">
  <g id="Reddit" transform="translate(-1498 -1562)">
    <rect id="Rectangle_34" data-name="Rectangle 34" width="24" height="24" rx="4" transform="translate(1498 1562)" fill="#6841b4"/>
    <path id="_211912_reddit_social_icon" data-name="211912_reddit_social_icon" d="M45.514,69.837a1.557,1.557,0,0,0-1.545-1.567,1.526,1.526,0,0,0-1.049.415,7.569,7.569,0,0,0-3.9-1.267l.684-2.285,2.094.421a1.4,1.4,0,0,0,1.383,1.261H43.2a1.408,1.408,0,0,0,0-2.815h-.009a1.385,1.385,0,0,0-1.233.758l-2.8-.562-.961,3.215-.078,0a7.626,7.626,0,0,0-4.017,1.27,1.52,1.52,0,0,0-1.049-.415,1.571,1.571,0,0,0-.7,2.965,2.852,2.852,0,0,0-.037.462c0,2.366,2.778,4.288,6.2,4.288s6.2-1.923,6.2-4.292a3.252,3.252,0,0,0-.034-.462A1.567,1.567,0,0,0,45.514,69.837Zm-12.944.627A.786.786,0,0,1,33,69.031a.771.771,0,0,1,.468.159A3.084,3.084,0,0,0,32.571,70.464Zm10.1-5.056a.515.515,0,1,1,.515.524A.522.522,0,0,1,42.668,65.408Zm-7.2,5.6a.993.993,0,1,1,.993.993A.991.991,0,0,1,35.464,71Zm3.043,3.483a3.571,3.571,0,0,1-2.41-.927l.393-.387a2.977,2.977,0,0,0,2.016.762,3.032,3.032,0,0,0,2.013-.762l.393.387A3.559,3.559,0,0,1,38.507,74.487ZM40.576,72A.993.993,0,1,1,41.569,71,.991.991,0,0,1,40.576,72Zm3.873-1.52a3.131,3.131,0,0,0-.915-1.292.765.765,0,0,1,.474-.162.8.8,0,0,1,.44,1.454Z" transform="translate(1471.5 1504)" fill="#fff"/>
  </g>
</svg>
