<svg xmlns="http://www.w3.org/2000/svg" width="38" height="38" viewBox="0 0 38 38">
  <g id="Group_74" data-name="Group 74" transform="translate(-1464 -572)">
    <circle id="Ellipse_4" data-name="Ellipse 4" cx="19" cy="19" r="19" transform="translate(1464 572)" fill="#fff"/>
    <g id="Search" transform="translate(1347.938 525.873)">
      <path id="Path_84" data-name="Path 84" d="M143.408,71.948l-4.523-4.523a.132.132,0,0,1-.015-.169,7.049,7.049,0,1,0-1.679,1.679.132.132,0,0,1,.169.015l4.51,4.51a1.089,1.089,0,0,0,1.524.026,1.078,1.078,0,0,0,.014-1.538ZM137.238,66.2a5.111,5.111,0,1,1,.987-3.019,5.126,5.126,0,0,1-.987,3.019Z"/>
    </g>
  </g>
</svg>
