<svg xmlns="http://www.w3.org/2000/svg" width="24" height="24" viewBox="0 0 24 24">
  <g id="Twitter" transform="translate(-1433 -1562)">
    <rect id="Rectangle_32" data-name="Rectangle 32" width="24" height="24" rx="4" transform="translate(1433 1562)" fill="#6841b4"/>
    <path id="_104501_twitter_bird_icon" data-name="104501_twitter_bird_icon" d="M17.234,11.64a5.576,5.576,0,0,1-1.61.441,2.808,2.808,0,0,0,1.232-1.551,5.61,5.61,0,0,1-1.78.68A2.8,2.8,0,0,0,10.3,13.767a7.957,7.957,0,0,1-5.777-2.928,2.806,2.806,0,0,0,.867,3.742,2.8,2.8,0,0,1-1.269-.351c0,.012,0,.024,0,.035a2.8,2.8,0,0,0,2.248,2.748,2.818,2.818,0,0,1-.738.1,2.777,2.777,0,0,1-.527-.05,2.806,2.806,0,0,0,2.618,1.946,5.655,5.655,0,0,1-4.149,1.16,7.97,7.97,0,0,0,12.27-6.715q0-.182-.008-.363A5.676,5.676,0,0,0,17.234,11.64Z" transform="translate(1435.006 1558.145)" fill="#fff"/>
  </g>
</svg>
