<svg xmlns="http://www.w3.org/2000/svg" width="21.146" height="13.864" viewBox="0 0 21.146 13.864">
  <g id="view" transform="translate(-77.839 -101.741)">
    <path id="Path_155" data-name="Path 155" d="M98.811,108.3a11.52,11.52,0,0,0-20.8,0l-.174.37.174.37a11.521,11.521,0,0,0,20.8,0l.174-.37Zm-10.388,5.553a9.844,9.844,0,0,1-8.624-5.183,9.778,9.778,0,0,1,17.27,0,9.844,9.844,0,0,1-8.646,5.183Z" fill="#3828be"/>
    <path id="Path_156" data-name="Path 156" d="M239.663,165.2a4.465,4.465,0,1,0,3.157,1.308A4.465,4.465,0,0,0,239.663,165.2Zm0,7.187a2.722,2.722,0,1,1,1.925-.8A2.722,2.722,0,0,1,239.663,172.387Z" transform="translate(-151.24 -60.991)" fill="#3828be"/>
  </g>
</svg>
