<svg xmlns="http://www.w3.org/2000/svg" width="22.403" height="17.736" viewBox="0 0 22.403 17.736">
  <g id="Group_51" data-name="Group 51" transform="translate(-1453 -42.264)">
    <path id="Path_74" data-name="Path 74" d="M392.468,236.25h-6.534a.933.933,0,0,0-.933.933v2.8a.933.933,0,0,0,.933.933h6.534a.933.933,0,0,0,.933-.933v-2.8a.933.933,0,0,0-.933-.933Zm-4.2,3.734a1.4,1.4,0,1,1,.99-.41A1.4,1.4,0,0,1,388.267,239.984Z" transform="translate(1082.002 -187.451)" fill="#d2baff"/>
    <path id="Path_73" data-name="Path 73" d="M134.635,121.217v2.8a2.8,2.8,0,0,0,2.8,2.8h6.534a2.588,2.588,0,0,0,.933-.168v2.035a2.8,2.8,0,0,1-2.8,2.8H125.3a2.8,2.8,0,0,1-2.8-2.8V116.55a2.8,2.8,0,0,1,2.8-2.8h16.8a2.8,2.8,0,0,1,2.8,2.8v2.035a2.588,2.588,0,0,0-.933-.168h-6.534a2.8,2.8,0,0,0-2.8,2.8Z" transform="translate(1330.5 -71.485)" fill="#d2baff"/>
  </g>
</svg>
