<svg xmlns="http://www.w3.org/2000/svg" width="36" height="36" viewBox="0 0 36 36">
  <g id="Group_34" data-name="Group 34" transform="translate(-1520 -19)">
    <circle id="Ellipse_2" data-name="Ellipse 2" cx="18" cy="18" r="18" transform="translate(1520 19)" fill="#5a38a5"/>
    <g id="noun-wallet-4034816" transform="translate(1404.5 -85.75)">
      <path id="Path_73" data-name="Path 73" d="M134.635,121.217v2.8a2.8,2.8,0,0,0,2.8,2.8h6.534a2.588,2.588,0,0,0,.933-.168v2.035a2.8,2.8,0,0,1-2.8,2.8H125.3a2.8,2.8,0,0,1-2.8-2.8V116.55a2.8,2.8,0,0,1,2.8-2.8h16.8a2.8,2.8,0,0,1,2.8,2.8v2.035a2.588,2.588,0,0,0-.933-.168h-6.534a2.8,2.8,0,0,0-2.8,2.8Z" fill="#fff"/>
      <path id="Path_74" data-name="Path 74" d="M392.468,236.25h-6.534a.933.933,0,0,0-.933.933v2.8a.933.933,0,0,0,.933.933h6.534a.933.933,0,0,0,.933-.933v-2.8a.933.933,0,0,0-.933-.933Zm-4.2,3.734a1.4,1.4,0,1,1,.99-.41A1.4,1.4,0,0,1,388.267,239.984Z" transform="translate(-248.498 -115.966)" fill="#fff"/>
    </g>
  </g>
</svg>
